<svg width="562" height="329" viewBox="0 0 562 329" fill="none" xmlns="http://www.w3.org/2000/svg">
<path d="M557 70C559.761 70 562 67.7614 562 65C562 62.2386 559.761 60 557 60V70ZM354.618 65V60H349.618V65H354.618ZM354.618 189.508V194.508H359.618V189.508H354.618ZM119 189.508V184.508H114V189.508H119ZM114 279L90.1325 329H147.868L124 279H114ZM557 60H354.618V70H557V60ZM349.618 65V189.508H359.618V65H349.618ZM354.618 184.508H119V194.508H354.618V184.508ZM114 189.508V284H124V189.508H114Z" fill="#90EE90"/>
<path d="M512 40C514.761 40 517 37.7614 517 35C517 32.2386 514.761 30 512 30V40ZM309.618 35V30H304.618V35H309.618ZM309.618 159.508V164.508H314.618V159.508H309.618ZM74 159.508V154.508H69V159.508H74ZM69 249L45.1325 299H102.868L79 249H69ZM512 30H309.618V40H512V30ZM304.618 35V159.508H314.618V35H304.618ZM309.618 154.508H74V164.508H309.618V154.508ZM69 159.508V254H79V159.508H69Z" fill="#98FB98"/>
<path d="M467 10C469.761 10 472 7.76142 472 5C472 2.23858 469.761 0 467 0V10ZM264.618 5V0H259.618V5H264.618ZM264.618 129.508V134.508H269.618V129.508H264.618ZM29 129.508V124.508H24V129.508H29ZM24 219L0.132487 269H57.8675L34 219H24ZM467 0H264.618V10H467V0ZM259.618 5V129.508H269.618V5H259.618ZM264.618 124.508H29V134.508H264.618V124.508ZM24 129.508V224H34V129.508H24Z" fill="#2E8B57"/>
</svg>
